HIERARCHY
ROOT Hips
{
	OFFSET 0.000000 0.000000 0.000000
	CHANNELS 6 Xposition Yposition Zposition Zrotation Yrotation Xrotation 
	JOINT LHipJoint
	{
		OFFSET 0.000000 0.000000 0.000000
		CHANNELS 3 Zrotation Yrotation Xrotation
		JOINT LeftUpLeg
		{
			OFFSET 1.363060 -1.794630 0.839290
			CHANNELS 3 Zrotation Yrotation Xrotation
			JOINT LeftLeg
			{
				OFFSET 2.448110 -6.726130 0.000000
				CHANNELS 3 Zrotation Yrotation Xrotation
				JOINT LeftFoot
				{
					OFFSET 2.562200 -7.039590 0.000000
					CHANNELS 3 Zrotation Yrotation Xrotation
					JOINT LeftToeBase
					{
						OFFSET 0.157640 -0.433110 2.322550
						CHANNELS 3 Zrotation Yrotation Xrotation
						End Site
						{
							OFFSET 0.000000 0.000000 0.000000
						}
					}
				}
			}
		}
	}
	JOINT RHipJoint
	{
		OFFSET 0.000000 0.000000 0.000000
		CHANNELS 3 Zrotation Yrotation Xrotation
		JOINT RightUpLeg
		{
			OFFSET -1.305520 -1.794630 0.839290
			CHANNELS 3 Zrotation Yrotation Xrotation
			JOINT RightLeg
			{
				OFFSET -2.542530 -6.985550 0.000000
				CHANNELS 3 Zrotation Yrotation Xrotation
				JOINT RightFoot
				{
					OFFSET -2.568260 -7.056230 0.000000
					CHANNELS 3 Zrotation Yrotation Xrotation
					JOINT RightToeBase
					{
						OFFSET -0.164730 -0.452590 2.363150
						CHANNELS 3 Zrotation Yrotation Xrotation
						End Site
						{
							OFFSET 0.000000 0.000000 0.000000
						}
					}
				}
			}
		}
	}
	JOINT LowerBack
	{
		OFFSET 0.000000 0.000000 0.000000
		CHANNELS 3 Zrotation Yrotation Xrotation
		JOINT Spine
		{
			OFFSET 0.028270 2.035590 -0.193380
			CHANNELS 3 Zrotation Yrotation Xrotation
			JOINT Spine1
			{
				OFFSET 0.056720 2.048850 -0.042750
				CHANNELS 3 Zrotation Yrotation Xrotation
				JOINT Neck
				{
					OFFSET 0.000000 0.000000 0.000000
					CHANNELS 3 Zrotation Yrotation Xrotation
					JOINT Neck1
					{
						OFFSET -0.054170 1.746240 0.172020
						CHANNELS 3 Zrotation Yrotation Xrotation
						JOINT Head
						{
							OFFSET 0.104070 1.761360 -0.123970
							CHANNELS 3 Zrotation Yrotation Xrotation
							End Site
							{
								OFFSET 0.000000 0.000000 0.000000
							}
						}
					}
				}
				JOINT LeftShoulder
				{
					OFFSET 0.000000 0.000000 0.000000
					CHANNELS 3 Zrotation Yrotation Xrotation
					JOINT LeftArm
					{
						OFFSET 3.362410 1.200890 -0.311210
						CHANNELS 3 Zrotation Yrotation Xrotation
						JOINT LeftForeArm
						{
							OFFSET 4.983000 -0.000000 -0.000000
							CHANNELS 3 Zrotation Yrotation Xrotation
							JOINT LeftHand
							{
								OFFSET 3.483560 -0.000000 -0.000000
								CHANNELS 3 Zrotation Yrotation Xrotation
								JOINT LeftFingerBase
								{
									OFFSET 0.000000 0.000000 0.000000
									CHANNELS 3 Zrotation Yrotation Xrotation
									JOINT LeftHandIndex1
									{
										OFFSET 0.715260 -0.000000 -0.000000
										CHANNELS 3 Zrotation Yrotation Xrotation
										End Site
										{
											OFFSET 0.000000 0.000000 0.000000
										}
									}
								}
								JOINT LThumb
								{
									OFFSET 0.000000 0.000000 0.000000
									CHANNELS 3 Zrotation Yrotation Xrotation
									End Site
									{
										OFFSET 0.000000 0.000000 0.000000
									}
								}
							}
						}
					}
				}
				JOINT RightShoulder
				{
					OFFSET 0.000000 0.000000 0.000000
					CHANNELS 3 Zrotation Yrotation Xrotation
					JOINT RightArm
					{
						OFFSET -3.136600 1.374050 -0.404650
						CHANNELS 3 Zrotation Yrotation Xrotation
						JOINT RightForeArm
						{
							OFFSET -5.241900 -0.000000 -0.000000
							CHANNELS 3 Zrotation Yrotation Xrotation
							JOINT RightHand
							{
								OFFSET -3.444170 -0.000000 -0.000000
								CHANNELS 3 Zrotation Yrotation Xrotation
								JOINT RightFingerBase
								{
									OFFSET 0.000000 0.000000 0.000000
									CHANNELS 3 Zrotation Yrotation Xrotation
									JOINT RightHandIndex1
									{
										OFFSET -0.622530 -0.000000 -0.000000
										CHANNELS 3 Zrotation Yrotation Xrotation
										End Site
										{
											OFFSET 0.000000 0.000000 0.000000
										}
									}
								}
								JOINT RThumb
								{
									OFFSET 0.000000 0.000000 0.000000
									CHANNELS 3 Zrotation Yrotation Xrotation
									End Site
									{
										OFFSET 0.000000 0.000000 0.000000
									}
								}
							}
						}
					}
				}
			}
		}
	}
}
MOTION
Frames: 10
Frame Time: 0.008333
-0.397101 17.943300 -32.146514 -6.714662 -6.670440 1.044556 -0.310783 4.285239 2.890174 -8.083667 -8.165235 -29.810095 2.558306 11.626153 35.161768 -1.020704 5.446259 6.504808 0.109900 -2.137200 -5.885000 2.102806 -4.835403 5.035193 27.985174 11.562369 -6.872858 -1.202578 -6.345561 25.624898 -0.078305 -1.110102 -0.932491 -0.458000 -4.341300 12.038800 4.861137 1.253832 4.826588 4.882908 2.106799 6.898115 -0.943025 1.084318 -5.454480 -4.788670 -4.736602 -20.239008 4.080570 -5.203783 16.880369 -0.144500 -2.070100 9.420000 -7.268900 2.908175 -1.385658 -81.571860 3.606345 25.457597 13.506870 -22.719550 -2.832515 -0.444068 -0.791565 -2.604646 27.601766 21.910602 11.624100 -7.125000 0.000000 0.000000 -0.983300 55.317900 -0.249100 11.052008 -1.539171 -2.238870 71.980004 7.993963 23.402553 -11.621450 23.725215 -2.851767 1.047697 -0.365139 2.995452 -19.847551 21.950608 -8.188600 7.125000 0.000000 0.000000 4.982000 -6.534500 4.399800
-0.398576 17.944836 -32.054078 -6.775480 -6.842963 1.116334 -0.376834 4.241392 2.841844 -7.796479 -8.214987 -29.807527 2.191691 11.207304 33.629805 -1.118904 5.910559 7.145793 0.111622 -2.154237 -5.932052 2.124336 -4.843015 5.062739 28.043668 11.531901 -6.616119 -1.193826 -6.319118 25.556926 -0.018685 -1.303918 -1.071261 -0.407749 -4.094291 11.342795 4.838902 1.353594 4.850666 4.922631 2.250000 6.543200 -0.959799 1.145504 -5.705533 -4.914880 -4.670207 -18.875529 4.115898 -5.225045 16.382571 -0.111410 -2.108049 9.040137 -7.248432 2.872844 -1.378963 -81.641349 4.283287 25.420193 13.465928 -22.660944 -2.815859 -0.447434 -0.790551 -2.579131 27.697074 21.813127 11.624038 -7.125000 0.000000 0.000000 -0.851185 55.231853 -0.214041 11.076236 -1.580367 -2.275312 71.868211 7.520022 23.587011 -11.788148 23.987459 -2.935238 1.037763 -0.339349 2.810103 -19.622993 21.562737 -7.950694 7.125000 0.000000 0.000000 5.097386 -6.992845 4.456263
-0.398970 17.943222 -31.960584 -6.843954 -6.935363 1.174284 -0.446876 4.203751 2.798142 -7.501699 -8.316632 -29.774850 1.832889 10.782840 32.109629 -1.202359 6.318877 7.736085 0.119926 -2.229634 -6.140791 2.145766 -4.847603 5.093087 28.112403 11.452864 -6.353451 -1.180034 -6.282189 25.459746 0.051311 -1.529157 -1.216928 -0.348087 -3.778865 10.456775 4.906786 1.429525 4.828399 4.879370 2.361025 6.342304 -1.049970 1.195214 -5.815902 -4.881397 -4.607202 -18.058042 4.149283 -5.238732 16.027998 -0.105382 -2.124597 8.792988 -7.233435 2.850310 -1.377053 -81.633132 4.708920 25.387507 13.407704 -22.575426 -2.793646 -0.449609 -0.780238 -2.555928 27.698869 21.331057 11.391826 -7.125000 0.000000 0.000000 -0.726065 54.697291 -0.174633 11.090656 -1.605084 -2.293112 71.861371 7.373580 23.635172 -11.907955 24.169634 -3.000733 1.020811 -0.310505 2.611022 -19.222301 21.033866 -7.596781 7.125000 0.000000 0.000000 5.321391 -7.622771 4.585215
-0.397557 17.936339 -31.865321 -6.925233 -6.893742 1.209103 -0.523595 4.176490 2.762179 -7.194222 -8.505077 -29.691807 1.487156 10.348983 30.609172 -1.261152 6.633550 8.241581 0.139239 -2.402651 -6.619986 2.167027 -4.847132 5.128122 28.198268 11.292585 -6.080867 -1.157810 -6.227721 25.313707 0.138660 -1.806960 -1.374130 -0.272680 -3.348998 9.252913 5.125416 1.465592 4.728611 4.697303 2.418228 6.399040 -1.262915 1.225726 -5.690946 -4.580788 -4.549869 -18.153853 4.179416 -5.239749 15.913000 -0.144623 -2.105346 8.767832 -7.227588 2.849184 -1.383148 -81.494934 4.714184 25.362711 13.320574 -22.444892 -2.762139 -0.449794 -0.754371 -2.536594 27.544244 20.205664 10.771290 -7.125000 0.000000 0.000000 -0.612647 53.412486 -0.127950 11.088672 -1.602237 -2.279727 72.030091 7.774954 23.455347 -11.949327 24.217877 -3.036158 0.992118 -0.276550 2.388971 -18.526986 20.269138 -7.048822 7.125000 0.000000 0.000000 5.727086 -8.539707 4.835423
-0.394350 17.932766 -31.767436 -6.943888 -6.885229 1.295358 -0.603704 4.138955 2.713659 -6.938212 -8.727279 -29.573938 1.155030 9.893271 29.104420 -1.330328 6.971455 8.676973 0.151924 -2.510727 -6.919500 2.196652 -4.856549 5.157863 28.175372 11.187956 -5.844599 -1.134577 -6.186614 25.187223 0.179652 -1.949647 -1.527699 -0.217892 -2.992725 8.259339 5.102718 1.456115 4.705703 4.762392 2.421706 5.930267 -1.243163 1.211513 -6.002941 -4.848490 -4.336118 -16.772743 4.360201 -5.048290 15.623182 -0.017483 -2.030864 8.458609 -7.206660 2.822916 -1.373537 -81.652823 5.678090 25.166042 13.292934 -22.396687 -2.753062 -0.448911 -0.735953 -2.582401 27.413245 19.315557 10.278196 -7.125000 0.000000 0.000000 -0.548799 52.395087 -0.100551 11.116718 -1.640209 -2.309341 71.869401 7.226622 23.713428 -12.035587 24.368794 -3.093018 0.970356 -0.240438 2.147570 -17.954780 19.585409 -6.595720 7.125000 0.000000 0.000000 6.065447 -9.351981 5.024831
-0.390539 17.930233 -31.668768 -6.956449 -6.894476 1.401047 -0.682534 4.098478 2.660783 -6.682749 -8.961966 -29.447968 0.830869 9.430117 27.598973 -1.405380 7.326608 9.087774 0.160144 -2.578582 -7.107625 2.229405 -4.869466 5.186033 28.132907 11.121125 -5.608003 -1.110807 -6.148262 25.064207 0.206981 -2.052307 -1.684048 -0.174695 -2.692341 7.423246 4.989270 1.424975 4.725881 4.935821 2.397203 5.318957 -1.120842 1.179420 -6.450458 -5.323325 -4.092509 -15.042988 4.576157 -4.803815 15.337306 0.161064 -1.942964 8.097006 -7.184131 2.793092 -1.359181 -81.943812 6.891926 24.871839 13.283695 -22.373510 -2.750315 -0.447934 -0.722613 -2.629873 27.298870 18.627512 9.892145 -7.125000 0.000000 0.000000 -0.518908 51.606626 -0.084482 11.151453 -1.685852 -2.349843 71.571107 6.419256 24.159086 -12.138803 24.556292 -3.157348 0.951748 -0.203409 1.898045 -17.457778 18.928575 -6.188601 7.125000 0.000000 0.000000 6.359830 -10.124902 5.175149
-0.386728 17.927160 -31.570801 -7.076291 -6.951203 1.522024 -0.744032 4.061675 2.606964 -6.307143 -9.204749 -29.347892 0.530999 8.966309 26.098896 -1.497521 7.749381 9.491340 0.152332 -2.514739 -6.930610 2.264406 -4.883635 5.215719 28.212376 11.191030 -5.281506 -1.085617 -6.097448 24.918903 0.248140 -2.193815 -1.869075 -0.164854 -2.615089 7.208835 4.807192 1.348368 4.869521 5.289881 2.301688 4.952930 -0.824374 1.126996 -6.815899 -5.912637 -4.011988 -14.374884 4.681006 -4.643376 15.501094 0.306957 -1.892037 8.044787 -7.186481 2.798389 -1.348675 -82.474944 7.586022 24.292969 13.262929 -22.331228 -2.738864 -0.448852 -0.727705 -2.532253 27.246686 18.820396 9.966014 -7.125000 0.000000 0.000000 -0.612890 51.814271 -0.103118 11.161731 -1.688071 -2.364734 71.080724 6.044844 24.893421 -12.255327 24.758446 -3.223543 0.939045 -0.165011 1.636937 -17.202974 18.269242 -5.882362 7.125000 0.000000 0.000000 6.501356 -10.868082 5.191878
-0.382490 17.922256 -31.472650 -7.186575 -6.972960 1.645263 -0.807616 4.030007 2.558244 -5.937539 -9.461546 -29.267223 0.241893 8.499376 24.606930 -1.581237 8.144340 9.884501 0.141772 -2.425177 -6.682366 2.295330 -4.892878 5.247999 28.296247 11.239194 -4.970261 -1.061215 -6.044518 24.772076 0.306560 -2.387007 -2.064069 -0.140810 -2.403993 6.624140 4.731978 1.294495 4.872347 5.507763 2.224224 4.852388 -0.646106 1.094396 -6.904585 -6.257151 -4.023447 -14.246095 4.711282 -4.593819 15.603058 0.375513 -1.884910 8.060040 -7.193897 2.805948 -1.346489 -82.855061 7.824212 23.856427 13.234847 -22.281415 -2.724574 -0.450085 -0.735134 -2.396058 27.209462 19.167693 10.120367 -7.125000 0.000000 0.000000 -0.726969 52.195650 -0.129818 11.162536 -1.675196 -2.363720 70.747302 6.131066 25.433004 -12.331049 24.875775 -3.262867 0.933772 -0.132095 1.487091 -17.222410 17.659526 -5.686569 7.125000 0.000000 0.000000 6.461664 -11.525984 5.074826
-0.377820 17.915495 -31.374314 -7.287169 -6.959270 1.770795 -0.873313 4.003546 2.514691 -5.574018 -9.732549 -29.206230 -0.036302 8.029276 23.123186 -1.656414 8.511105 10.267115 0.128425 -2.309546 -6.361918 2.322120 -4.897128 5.282910 28.384581 11.265318 -4.674476 -1.037612 -5.989444 24.623706 0.382477 -2.632593 -2.269168 -0.102369 -2.057221 5.664088 4.765091 1.263668 4.732431 5.587604 2.165061 5.020966 -0.587658 1.081891 -6.712725 -6.353513 -4.128147 -14.664008 4.665963 -4.656663 15.642352 0.365672 -1.922182 8.143688 -7.206450 2.815802 -1.352737 -83.082095 7.600250 23.564164 13.199349 -22.223967 -2.707404 -0.451637 -0.744932 -2.220759 27.187403 19.671516 10.356305 -7.125000 0.000000 0.000000 -0.861422 52.753143 -0.164692 11.153737 -1.647021 -2.346582 70.572994 6.684231 25.775166 -12.365412 24.907117 -3.274952 0.936033 -0.104733 1.450031 -17.519842 17.100109 -5.602736 7.125000 0.000000 0.000000 6.238274 -12.097438 4.822158
-0.373577 17.909430 -31.276674 -7.332692 -6.941890 1.854565 -0.952736 3.998821 2.490378 -5.232575 -10.056771 -29.118333 -0.291302 7.562095 21.688947 -1.708411 8.782869 10.553170 0.121987 -2.251487 -6.201176 2.334007 -4.892050 5.323671 28.423831 11.209927 -4.372011 -1.012917 -5.927943 24.468620 0.438674 -2.816305 -2.457900 -0.115234 -2.182817 6.011404 5.128327 1.425885 4.525327 5.111286 2.359360 5.797564 -0.995973 1.205194 -6.006079 -5.449650 -4.488100 -17.124200 4.443939 -5.083113 16.037508 0.091423 -2.059552 8.653539 -7.234590 2.863737 -1.377514 -82.543948 6.084742 24.214909 13.043572 -22.010647 -2.645728 -0.451619 -0.756006 -2.260116 27.204071 20.224099 10.630375 -7.125000 0.000000 0.000000 -0.973970 53.369013 -0.201548 11.105512 -1.571592 -2.270437 71.100593 8.351566 25.000394 -12.330289 24.785643 -3.253791 0.930044 -0.085790 1.816123 -17.776238 16.397234 -5.448958 7.125000 0.000000 0.000000 6.041286 -12.822654 4.577738
